<svg width="529" height="513" viewBox="0 0 529 513" fill="none" xmlns="http://www.w3.org/2000/svg">
<path d="M292.756 18C287.456 7 276.256 0 263.956 0C251.656 0 240.556 7 235.156 18L170.856 150.3L27.2564 171.5C15.2564 173.3 5.25645 181.7 1.55645 193.2C-2.14355 204.7 0.856442 217.4 9.45644 225.9L113.656 329L89.0564 474.7C87.0564 486.7 92.0564 498.9 101.956 506C111.856 513.1 124.956 514 135.756 508.3L264.056 439.8L392.356 508.3C403.156 514 416.256 513.2 426.156 506C436.056 498.8 441.056 486.7 439.056 474.7L414.356 329L518.556 225.9C527.156 217.4 530.256 204.7 526.456 193.2C522.656 181.7 512.756 173.3 500.756 171.5L357.056 150.3L292.756 18Z" fill="#FD6060"/>
</svg>
